<?xml version="1.0" encoding="UTF-8" standalone="no"?>
<svg
   width="64"
   height="64"
   version="1.0"
   id="svg20"
   sodipodi:docname="io.github.celluloid_player.Celluloid.svg"
   inkscape:version="1.2.2 (b0a8486541, 2022-12-01)"
   xmlns:inkscape="http://www.inkscape.org/namespaces/inkscape"
   xmlns:sodipodi="http://sodipodi.sourceforge.net/DTD/sodipodi-0.dtd"
   xmlns="http://www.w3.org/2000/svg"
   xmlns:svg="http://www.w3.org/2000/svg">
  <defs
     id="defs24" />
  <sodipodi:namedview
     id="namedview22"
     pagecolor="#ffffff"
     bordercolor="#000000"
     borderopacity="0.25"
     inkscape:showpageshadow="2"
     inkscape:pageopacity="0.0"
     inkscape:pagecheckerboard="0"
     inkscape:deskcolor="#d1d1d1"
     showgrid="false"
     inkscape:zoom="10.296875"
     inkscape:cx="32"
     inkscape:cy="32.097117"
     inkscape:window-width="1600"
     inkscape:window-height="833"
     inkscape:window-x="0"
     inkscape:window-y="37"
     inkscape:window-maximized="1"
     inkscape:current-layer="svg20" />
  <rect
     style="opacity:0.2"
     width="58"
     height="46"
     x="3"
     y="10"
     rx="4"
     ry="4"
     id="rect2" />
  <rect
     style="fill:#8caaee;fill-opacity:1"
     width="58"
     height="46"
     x="3"
     y="9"
     rx="4"
     ry="4"
     id="rect4" />
  <path
     style="opacity:0.2"
     d="M 32,17 A 11,11 0 0 0 21,28 11,11 0 0 0 32,39 11,11 0 0 0 43,28 11,11 0 0 0 32,17 Z M 28,22 H 29 29.115 C 29.31,21.998 29.502,22.047 29.672,22.15 L 37.479,26.951 C 37.825,27.157 38,27.578 38,28 38,28.422 37.825,28.843 37.479,29.049 L 29.672,33.85 C 29.502,33.953 29.31,34.001 29.115,34 H 29 28 Z"
     id="path6" />
  <path
     style="fill:#ffffff"
     d="M 32 16 A 11 11 0 0 0 21 27 A 11 11 0 0 0 32 38 A 11 11 0 0 0 43 27 A 11 11 0 0 0 32 16 z M 28 21 L 29 21 L 29.115 21 C 29.31 20.998 29.502 21.047 29.672 21.15 L 37.479 25.951 C 37.825 26.157 38 26.578 38 27 C 38 27.422 37.825 27.843 37.479 28.049 L 29.672 32.85 C 29.502 32.953 29.31 33.001 29.115 33 L 29 33 L 28 33 L 28 21 z"
     id="path8" />
  <rect
     style="opacity:0.5;fill:#ffffff"
     width="34"
     height="3"
     x="15"
     y="45"
     rx="1.5"
     ry="1.5"
     id="rect10" />
  <rect
     style="opacity:0.2"
     width="9"
     height="9"
     x="19"
     y="43"
     rx="4.5"
     ry="4.5"
     id="rect12" />
  <rect
     style="fill:#ffffff"
     width="9"
     height="9"
     x="19"
     y="42"
     rx="4.5"
     ry="4.5"
     id="rect14" />
  <path
     style="opacity:0.3"
     d="M 7 9 L 7 13 L 11 13 L 11 9 L 7 9 z M 53 9 L 53 13 L 57 13 L 57 9 L 53 9 z M 7 17 L 7 21 L 11 21 L 11 17 L 7 17 z M 53 17 L 53 21 L 57 21 L 57 17 L 53 17 z M 7 25 L 7 29 L 11 29 L 11 25 L 7 25 z M 53 25 L 53 29 L 57 29 L 57 25 L 53 25 z M 7 33 L 7 37 L 11 37 L 11 33 L 7 33 z M 53 33 L 53 37 L 57 37 L 57 33 L 53 33 z M 7 41 L 7 45 L 11 45 L 11 41 L 7 41 z M 53 41 L 53 45 L 57 45 L 57 41 L 53 41 z M 7 49 L 7 53 L 11 53 L 11 49 L 7 49 z M 53 49 L 53 53 L 57 53 L 57 49 L 53 49 z"
     id="path16" />
  <path
     style="fill:#ffffff;opacity:0.1"
     d="M 7 9 C 4.784 9 3 10.784 3 13 L 3 14 C 3 11.784 4.784 10 7 10 L 57 10 C 59.216 10 61 11.784 61 14 L 61 13 C 61 10.784 59.216 9 57 9 L 7 9 z"
     id="path18" />
</svg>
